<svg width="17" height="12" viewBox="0 0 17 12" fill="none" xmlns="http://www.w3.org/2000/svg">
<path d="M9.8 11.2748C9.6 11.0748 9.504 10.8331 9.512 10.5498C9.52067 10.2665 9.625 10.0248 9.825 9.8248L12.65 6.9998H1.5C1.21667 6.9998 0.979 6.9038 0.787 6.7118C0.595667 6.52047 0.5 6.28314 0.5 5.9998C0.5 5.71647 0.595667 5.4788 0.787 5.2868C0.979 5.09547 1.21667 4.9998 1.5 4.9998H12.65L9.8 2.1498C9.6 1.9498 9.5 1.71214 9.5 1.4368C9.5 1.16214 9.6 0.924804 9.8 0.724804C10 0.524804 10.2377 0.424805 10.513 0.424805C10.7877 0.424805 11.025 0.524804 11.225 0.724804L15.8 5.2998C15.9 5.3998 15.971 5.50814 16.013 5.6248C16.0543 5.74147 16.075 5.86647 16.075 5.9998C16.075 6.13314 16.0543 6.25814 16.013 6.3748C15.971 6.49147 15.9 6.5998 15.8 6.6998L11.2 11.2998C11.0167 11.4831 10.7877 11.5748 10.513 11.5748C10.2377 11.5748 10 11.4748 9.8 11.2748Z" fill="white"/>
</svg>
